<?xml version="1.0" standalone="no"?>
<!DOCTYPE svg PUBLIC "-//W3C//DTD SVG 20010904//EN"
 "http://www.w3.org/TR/2001/REC-SVG-20010904/DTD/svg10.dtd">
<svg version="1.0" xmlns="http://www.w3.org/2000/svg"
 width="512.000000pt" height="512.000000pt" viewBox="0 0 512.000000 512.000000"
 preserveAspectRatio="xMidYMid meet">
<metadata>
Created by potrace 1.11, written by Peter Selinger 2001-2013
</metadata>
<g transform="translate(0.000000,512.000000) scale(0.100000,-0.100000)"
fill="#000000" stroke="none">
<path d="M3438 3787 c-111 -107 -509 -490 -713 -689 -147 -143 -181 -175 -524
-507 -118 -113 -286 -275 -372 -359 -86 -85 -191 -186 -232 -225 -41 -40 -172
-166 -292 -282 -119 -115 -270 -262 -336 -325 -65 -63 -119 -119 -119 -123 0
-9 51 -56 61 -57 4 0 47 39 97 88 653 634 827 801 836 801 6 1 10 -104 11
-261 l0 -263 240 0 c132 -1 245 1 250 2 6 2 10 48 10 116 l0 112 -125 0 -125
1 -3 275 -2 275 118 115 c66 63 135 129 155 148 l36 34 1 -534 c0 -293 3 -535
6 -538 10 -11 484 -7 485 4 4 39 4 215 0 216 -4 1 -58 3 -121 4 -63 2 -117 3
-120 4 -11 2 -6 271 5 272 5 1 51 3 100 4 50 1 95 3 100 4 9 1 10 33 6 202
l-1 26 -100 -1 c-56 -1 -104 1 -108 4 -10 7 -10 254 0 261 5 3 58 5 119 4 60
-1 113 3 115 7 5 8 7 100 5 194 l-1 32 -152 1 c-84 0 -156 1 -160 1 -7 0 156
161 372 370 41 39 186 179 321 311 135 131 262 254 282 273 l36 33 -32 31 -32
31 -97 -92z"/>
<path d="M156 3851 c-6 -10 -13 -48 -21 -128 -4 -35 -8 -73 -10 -85 -2 -13 -6
-48 -9 -78 -4 -30 -8 -71 -11 -90 -2 -19 -7 -60 -10 -90 -4 -30 -8 -66 -10
-80 -2 -14 -6 -47 -10 -75 -3 -27 -7 -72 -10 -100 -3 -27 -8 -66 -11 -86 -2
-20 -6 -54 -9 -75 -2 -21 -9 -77 -15 -124 -22 -174 -24 -220 -9 -220 46 -2
150 -13 182 -20 20 -4 39 -5 42 -1 2 4 7 30 10 57 3 27 8 65 10 84 3 19 7 58
10 85 3 28 8 64 10 80 11 92 19 151 20 160 1 6 3 15 3 20 1 6 46 10 110 10 93
1 114 4 162 26 105 49 173 143 192 268 22 138 -7 254 -81 327 -40 40 -137 90
-191 98 -19 3 -51 8 -70 11 -19 3 -53 7 -75 9 -22 2 -69 7 -105 11 -36 3 -70
8 -77 10 -7 2 -15 1 -17 -4z m316 -247 c41 -21 59 -56 62 -118 4 -70 -29 -148
-71 -169 -26 -14 -71 -21 -115 -18 -19 1 -19 1 8 206 9 66 11 87 13 106 1 13
9 16 39 12 20 -3 49 -12 64 -19z"/>
<path d="M846 3704 c-4 -38 -9 -82 -12 -99 -2 -16 -6 -52 -9 -80 -3 -27 -8
-68 -10 -90 -4 -36 -27 -227 -41 -345 -11 -94 -14 -117 -21 -175 -4 -33 -7
-91 -7 -130 2 -200 157 -315 419 -310 63 1 93 7 136 27 118 54 156 129 183
363 3 22 8 65 12 95 3 30 7 66 9 80 2 14 6 54 10 90 4 36 8 76 10 90 2 14 6
50 10 80 3 30 8 71 10 90 3 19 7 55 10 80 3 25 7 61 10 80 18 142 18 140 -9
141 -14 1 -29 2 -33 3 -11 3 -172 18 -180 17 -8 -1 -8 -2 -17 -91 -3 -36 -8
-78 -10 -95 -2 -16 -8 -59 -12 -95 -4 -36 -8 -67 -9 -70 -1 -3 -5 -41 -9 -85
-5 -44 -9 -87 -11 -95 -1 -8 -6 -42 -9 -75 -4 -33 -8 -71 -11 -85 -2 -14 -7
-52 -10 -85 -15 -148 -26 -187 -62 -215 -31 -24 -92 -26 -134 -5 -53 28 -61
72 -45 235 8 77 17 150 21 171 2 10 6 49 10 87 3 38 7 78 9 88 2 10 7 46 10
79 4 33 9 71 11 85 2 14 6 52 10 85 8 88 16 148 20 165 10 35 1 37 -186 56
l-56 6 -7 -68z"/>
<path d="M1666 3672 c-4 -7 -14 -82 -21 -167 -2 -22 -6 -51 -9 -65 -3 -14 -8
-55 -11 -92 -3 -37 -8 -77 -10 -90 -2 -13 -6 -50 -10 -83 -3 -33 -8 -67 -10
-75 -2 -8 -6 -44 -10 -80 -3 -36 -7 -78 -9 -95 -2 -16 -7 -59 -11 -95 -4 -36
-9 -73 -10 -82 -2 -9 -6 -45 -9 -80 -4 -35 -8 -72 -10 -83 -11 -60 -16 -134
-8 -139 4 -3 38 -8 75 -11 37 -4 93 -10 124 -15 54 -8 178 -6 213 3 112 28
182 84 225 179 25 55 29 74 28 158 0 108 -17 160 -74 225 -32 36 -33 39 -15
49 46 26 95 87 116 142 50 136 14 295 -90 393 -53 49 -105 65 -285 86 -71 9
-140 18 -152 20 -12 3 -24 2 -27 -3z m285 -249 c53 -31 71 -103 49 -185 -13
-45 -63 -86 -115 -95 l-38 -6 7 59 c4 32 10 82 12 109 3 28 7 59 9 70 2 11 4
30 4 43 1 27 30 29 72 5z m-56 -493 c64 -40 84 -155 41 -238 -20 -38 -74 -72
-115 -72 -39 0 -39 -11 -5 245 4 28 7 58 6 68 -1 23 32 22 73 -3z"/>
<path d="M4755 2840 c-55 -9 -113 -41 -156 -87 -71 -74 -100 -163 -96 -294 5
-152 61 -234 256 -372 41 -28 83 -65 92 -82 38 -65 13 -157 -50 -190 -56 -28
-149 -18 -219 25 -18 11 -34 20 -35 20 -1 0 -2 -53 -2 -117 l0 -118 35 -17
c94 -47 218 -54 313 -18 216 81 289 404 133 594 -19 24 -79 76 -132 117 -109
83 -154 141 -154 200 0 51 16 82 51 103 55 32 134 22 209 -28 l39 -25 0 115
c0 110 -1 115 -24 130 -57 37 -178 58 -260 44z"/>
<path d="M3206 2812 c-3 -10 -28 -118 -57 -242 -52 -228 -68 -298 -114 -495
-40 -168 -105 -458 -108 -475 -2 -12 17 -15 111 -15 62 0 117 2 122 5 5 3 17
48 27 99 13 69 22 95 35 100 10 3 66 6 125 6 l107 -1 8 -30 c5 -16 11 -44 14
-61 3 -18 11 -52 18 -75 l12 -43 124 0 c150 0 141 -27 80 220 -17 72 -34 144
-36 160 -3 17 -7 37 -10 45 -5 14 -23 88 -114 470 -16 69 -42 175 -57 235
l-28 110 -127 2 c-111 1 -128 -1 -132 -15z m130 -330 c1 -17 16 -128 20 -147
2 -11 11 -58 19 -105 8 -47 17 -96 20 -110 3 -14 8 -41 11 -60 3 -19 8 -43 11
-52 4 -16 -5 -18 -81 -18 -47 0 -86 4 -86 8 0 5 4 33 10 63 9 50 12 72 24 147
3 15 8 47 11 72 3 25 8 52 10 60 4 15 17 125 18 148 0 12 12 7 13 -6z"/>
<path d="M3808 2816 c-4 -10 -3 -1194 1 -1221 1 -9 189 -13 234 -6 4 0 7 142
8 314 l0 312 19 -50 c10 -27 55 -153 100 -280 45 -126 87 -246 94 -265 l14
-35 126 0 c69 0 126 4 126 8 0 5 -9 29 -19 55 -11 26 -68 172 -126 324 -110
287 -110 285 -79 353 21 49 194 489 194 496 0 3 -54 6 -121 6 l-121 0 -13 -31
c-13 -30 -86 -227 -157 -425 l-33 -93 -3 274 -2 274 -120 1 c-81 1 -120 -3
-122 -11z"/>
</g>
</svg>
