<?xml version="1.0" encoding="utf-8"?>
<!-- Generator: Adobe Illustrator 18.1.1, SVG Export Plug-In . SVG Version: 6.00 Build 0)  -->
<svg version="1.1" id="Laag_1" xmlns="http://www.w3.org/2000/svg" xmlns:xlink="http://www.w3.org/1999/xlink" x="0px" y="0px"
	 viewBox="0 0 384 384" enable-background="new 0 0 384 384" xml:space="preserve">
<g>
	
		<polyline fill="none" stroke="#353535" stroke-width="11" stroke-linecap="round" stroke-linejoin="round" stroke-miterlimit="10" points="
		16.5,123.6 16.5,64.1 107,64.1 	"/>
	
		<polyline fill="none" stroke="#353535" stroke-width="11" stroke-linecap="round" stroke-linejoin="round" stroke-miterlimit="10" points="
		362.2,123.6 362.2,64.1 271.8,64.1 	"/>
	
		<polyline fill="none" stroke="#353535" stroke-width="11" stroke-linecap="round" stroke-linejoin="round" stroke-miterlimit="10" points="
		16.5,258.2 16.5,317.6 107,317.6 	"/>
	
		<polyline fill="none" stroke="#353535" stroke-width="11" stroke-linecap="round" stroke-linejoin="round" stroke-miterlimit="10" points="
		362.2,258.2 362.2,317.6 271.8,317.6 	"/>
	
		<path fill="#FFFFFF" stroke="#353535" stroke-width="11" stroke-linecap="round" stroke-linejoin="round" stroke-miterlimit="10" d="
		M307.5,186c-22.5-23.8-48.1-42.3-78.4-52.9c-13.1-4.6-26.4-6.8-39.8-6.7c-13.4-0.2-26.7,2.1-39.8,6.7
		c-30.3,10.6-55.9,29.1-78.4,52.9c-1.3,1.4-2.5,3-4.1,4.9c4.8,4.9,9.3,9.8,14.2,14.3c18.3,17,38.5,30.8,61.3,40
		c15.6,6.3,31.3,9.3,46.8,9.1c15.6,0.2,31.2-2.8,46.8-9.1c22.8-9.2,43-22.9,61.3-40c4.9-4.5,9.4-9.5,14.2-14.3
		C310,189,308.9,187.4,307.5,186z"/>
	
		<circle fill="#00DEB1" stroke="#353535" stroke-width="11" stroke-linecap="round" stroke-linejoin="round" stroke-miterlimit="10" cx="189.9" cy="190.6" r="45.4"/>
	
		<line fill="none" stroke="#353535" stroke-width="11" stroke-linecap="round" stroke-linejoin="round" stroke-miterlimit="10" x1="189.6" y1="44.4" x2="189.6" y2="74.5"/>
	
		<line fill="none" stroke="#353535" stroke-width="11" stroke-linecap="round" stroke-linejoin="round" stroke-miterlimit="10" x1="189.6" y1="309.5" x2="189.6" y2="339.6"/>
	
		<line fill="none" stroke="#353535" stroke-width="11" stroke-linecap="round" stroke-linejoin="round" stroke-miterlimit="10" x1="36.8" y1="190.4" x2="6.7" y2="190.4"/>
	
		<line fill="none" stroke="#353535" stroke-width="11" stroke-linecap="round" stroke-linejoin="round" stroke-miterlimit="10" x1="377.3" y1="190.4" x2="347.2" y2="190.4"/>
	
		<line fill="none" stroke="#353535" stroke-width="11" stroke-linecap="round" stroke-linejoin="round" stroke-miterlimit="10" x1="287.1" y1="90.6" x2="287.1" y2="95.2"/>
	
		<line fill="none" stroke="#353535" stroke-width="11" stroke-linecap="round" stroke-linejoin="round" stroke-miterlimit="10" x1="310.3" y1="90.6" x2="310.3" y2="95.2"/>
	
		<line fill="none" stroke="#353535" stroke-width="11" stroke-linecap="round" stroke-linejoin="round" stroke-miterlimit="10" x1="334.8" y1="90.6" x2="334.8" y2="95.2"/>
</g>
</svg>
