<?xml version="1.0" encoding="utf-8"?>
<!-- Generator: Adobe Illustrator 18.1.1, SVG Export Plug-In . SVG Version: 6.00 Build 0)  -->
<svg version="1.1" id="Laag_1" xmlns="http://www.w3.org/2000/svg" xmlns:xlink="http://www.w3.org/1999/xlink" x="0px" y="0px"
	 viewBox="0 0 384 384" enable-background="new 0 0 384 384" xml:space="preserve">
<path fill="#00DEB1" d="M294.8,315.3H89V186.9C89,133.4,135.1,90,191.9,90s102.9,43.4,102.9,96.9V315.3z M294.8,315.3"/>
<path fill="#00DEB1" d="M294.8,187.7v127.6H271V187.7c0-26.6-13.6-50.7-35.5-68.1c-19.3-15.3-45.1-25.5-73.8-27.8
	c3.9-0.3,7.9-0.5,11.9-0.5c33.4,0,63.7,10.8,85.6,28.2C281.3,137,294.8,161.1,294.8,187.7L294.8,187.7z M294.8,187.7"/>
<path fill="none" stroke="#353535" stroke-width="11" stroke-linecap="round" stroke-linejoin="round" stroke-miterlimit="10" d="
	M294.4,319.4H90.3v-125c0-56.1,45.9-102.1,102.1-102.1h0c56.1,0,102.1,45.9,102.1,102.1V319.4z"/>
<path opacity="0.65" fill="#FFFFFF" d="M249.2,316.5H135.4V207.9c0-31.3,25.6-56.9,56.9-56.9h0c31.3,0,56.9,25.6,56.9,56.9V316.5z"
	/>
<path fill="#FFFFFF" stroke="#353535" stroke-width="11" stroke-linecap="round" stroke-linejoin="round" stroke-miterlimit="10" d="
	M322.9,374.8H61.7c-6.8,0-11.9-6.3-10.4-13l11.7-36c1.1-4.9,5.4-8.3,10.4-8.3h237.9c5,0,9.3,3.5,10.4,8.3l11.7,36
	C334.8,368.5,329.8,374.8,322.9,374.8z"/>
<g>
	
		<line fill="none" stroke="#353535" stroke-width="11" stroke-linecap="round" stroke-linejoin="round" stroke-miterlimit="10" x1="6.6" y1="194.9" x2="52.2" y2="194.9"/>
	
		<line fill="none" stroke="#353535" stroke-width="11" stroke-linecap="round" stroke-linejoin="round" stroke-miterlimit="10" x1="332.4" y1="194.9" x2="378.1" y2="194.9"/>
	
		<line fill="none" stroke="#353535" stroke-width="11" stroke-linecap="round" stroke-linejoin="round" stroke-miterlimit="10" x1="127.3" y1="43.2" x2="137.5" y2="66"/>
	
		<line fill="none" stroke="#353535" stroke-width="11" stroke-linecap="round" stroke-linejoin="round" stroke-miterlimit="10" x1="40.5" y1="131.9" x2="62.9" y2="141.2"/>
	
		<line fill="none" stroke="#353535" stroke-width="11" stroke-linecap="round" stroke-linejoin="round" stroke-miterlimit="10" x1="323.7" y1="63.6" x2="291.4" y2="95.9"/>
	
		<line fill="none" stroke="#353535" stroke-width="11" stroke-linecap="round" stroke-linejoin="round" stroke-miterlimit="10" x1="192.3" y1="9.2" x2="192.3" y2="54.8"/>
	
		<line fill="none" stroke="#353535" stroke-width="11" stroke-linecap="round" stroke-linejoin="round" stroke-miterlimit="10" x1="61" y1="63.6" x2="93.3" y2="95.9"/>
	
		<line fill="none" stroke="#353535" stroke-width="11" stroke-linecap="round" stroke-linejoin="round" stroke-miterlimit="10" x1="257.4" y1="43.2" x2="247.2" y2="66"/>
	
		<line fill="none" stroke="#353535" stroke-width="11" stroke-linecap="round" stroke-linejoin="round" stroke-miterlimit="10" x1="344.2" y1="131.9" x2="321.7" y2="141.2"/>
</g>
<path fill="#00DEB1" d="M246.4,198.2v117.6h-15.1V198.2c0-11.9-5.3-22.7-14-30.5c-7-6.3-16-10.6-26.2-12.1c2.5-0.4,5-0.5,7.5-0.5
	c13.2,0,25.1,4.8,33.8,12.6C241,175.5,246.4,186.3,246.4,198.2L246.4,198.2z M246.4,198.2"/>
<g>
	
		<line fill="none" stroke="#353535" stroke-width="11" stroke-linecap="round" stroke-linejoin="round" stroke-miterlimit="10" x1="211.7" y1="235.6" x2="211.7" y2="316.9"/>
	
		<line fill="none" stroke="#353535" stroke-width="11" stroke-linecap="round" stroke-linejoin="round" stroke-miterlimit="10" x1="173" y1="235.6" x2="173" y2="316.9"/>
</g>
<path fill="none" stroke="#353535" stroke-width="11" stroke-linecap="round" stroke-linejoin="round" stroke-miterlimit="10" d="
	M249.2,316.5H135.4V207.9c0-31.3,25.6-56.9,56.9-56.9h0c31.3,0,56.9,25.6,56.9,56.9V316.5z"/>
</svg>
