<?xml version="1.0" encoding="utf-8"?>
<!-- Generator: Adobe Illustrator 18.1.1, SVG Export Plug-In . SVG Version: 6.00 Build 0)  -->
<svg version="1.1" id="Laag_1" xmlns="http://www.w3.org/2000/svg" xmlns:xlink="http://www.w3.org/1999/xlink" x="0px" y="0px"
	 viewBox="0 0 384 384" enable-background="new 0 0 384 384" xml:space="preserve">
<g>
	<g>
		
			<polygon fill="#FFFFFF" stroke="#353535" stroke-width="11" stroke-linecap="round" stroke-linejoin="round" stroke-miterlimit="10" points="
			152.9,290.9 145.9,326.6 237.9,326.6 232,290.9 		"/>
		
			<path fill="#FFFFFF" stroke="#353535" stroke-width="11" stroke-linecap="round" stroke-linejoin="round" stroke-miterlimit="10" d="
			M145.9,326.6l-12.7,9.1c-3.5,2.5-1.7,8,2.6,8h117.2c2.9,0,4.1-3.7,1.7-5.4l-16.7-11.7H145.9z"/>
	</g>
	
		<path fill="#FFFFFF" stroke="#353535" stroke-width="11" stroke-linecap="round" stroke-linejoin="round" stroke-miterlimit="10" d="
		M192,292.8c-55.3,0-110.6,0-165.9,0c-14.2,0-19.2-4.9-19.2-19c0-65.5,0-130.9,0-196.4c0-13.6,5.2-18.8,18.8-18.8
		c111.1,0,222.1,0,333.2,0c13.6,0,18.9,5.2,18.9,18.7c0,65.7,0,131.4,0,197.1c0,13.2-5.3,18.4-18.5,18.4
		C303.5,292.8,247.8,292.8,192,292.8z"/>
	<g>
		<g>
			<path fill="#00DEB1" d="M58.2,227.2c-6.2,0-11.9-2.4-16.2-6.7c-4.2-4.3-6.4-9.9-6.3-15.9c0.3-18.2,0.3-36.8,0.2-54.8
				c0-7.3,0-14.5,0-21.8c0-11.4,6.8-18.9,18.1-20c0-0.8,0-1.5,0-2.3c0-6-0.1-12.3,0.1-18.4c0.1-4.7,0.6-8.9,1.5-12.7
				c5.6-23,26.5-39.7,49.7-39.7c1.4,0,2.9,0.1,4.3,0.2c26.4,2.4,46.6,22.9,48,48.8c0.3,5.9,0.3,11.9,0.3,17.6c0,2.1,0,4.2,0,6.4
				c0.8,0,1.6,0,2.4,0c11.3,0.3,18.6,7.9,18.6,19.2c0,26.2,0,52.4,0,78.6c0,13-8.3,21.4-21.2,21.4h-2.1c-8.8,0-17.7,0-26.5,0
				c-8.8,0-17.7,0-26.5,0c-17.4,0-31.4,0.1-44.2,0.2L58.2,227.2z M134.7,107.6c0-1.1,0-2.2,0-3.3c0.1-6.4,0.2-12.4-0.2-18.5
				c-0.7-14.1-12.5-25.8-26.8-26.6c-0.6,0-1.2-0.1-1.8-0.1c-14.3,0-26.4,9.9-28.3,23c-1,6.8-1,13.7-1,21c0,1.5,0,2.9,0,4.4H134.7z"
				/>
			<path fill="#353535" d="M105.3,40.4c1.3,0,2.5,0.1,3.8,0.2c23.6,2.1,41.7,20.3,43,43.6c0.5,8.4,0.2,16.8,0.3,25.1
				c0,1.2,0,2.5,0,4.1c1.8,0,3.4,0,5,0c0.9,0,1.9,0,2.8,0c8.4,0.3,13.3,5.3,13.3,13.7c0,26.2,0,52.4,0,78.6c0,10-5.8,15.9-15.7,15.9
				c-0.7,0-1.5,0-2.2,0c-17.6,0-35.3,0-52.9,0c-14.7,0-29.5,0-44.2,0.2c-0.1,0-0.1,0-0.2,0c-9.6,0-17.2-7.6-17-17
				c0.5-25.6,0.2-51.1,0.2-76.7c0-8.7,4.7-13.8,13.4-14.5c1.4-0.1,2.9-0.1,4.7-0.2c0-8.7-0.1-17.3,0.1-25.8
				c0.1-3.8,0.5-7.8,1.4-11.5C65.9,55.1,84.8,40.4,105.3,40.4 M71.1,113.1c23.6,0,46.3,0,69.1,0c0-9.4,0.4-18.5-0.1-27.6
				c-0.9-17-15-30.8-32-31.8c-0.7,0-1.4-0.1-2.1-0.1c-16.5,0-31.5,11.6-33.8,27.7C70.8,91.7,71.4,102.4,71.1,113.1 M105.3,29.4v11
				V29.4C105.3,29.4,105.3,29.4,105.3,29.4c-25.8,0-48.9,18.5-55.1,43.9c-1,4.2-1.6,8.7-1.7,13.8c-0.1,5.4-0.1,10.9-0.1,16.3
				c-11.3,2.9-18.1,12-18.1,24.6c0,7.3,0,14.7,0,21.9c0.1,17.9,0.1,36.5-0.2,54.7c-0.1,7.5,2.7,14.5,7.9,19.8
				c5.3,5.4,12.5,8.4,20.1,8.4l0.3,0c12.8-0.1,26.8-0.2,44.1-0.2c8.8,0,17.6,0,26.4,0c8.8,0,17.6,0,26.5,0l2.3,0
				c16,0,26.7-10.8,26.7-26.9c0-26.2,0-52.4,0-78.6c0-13.4-8.4-22.9-21.1-24.5c0-0.4,0-0.7,0-1.1c0-5.8,0.1-11.9-0.3-18
				c-1.6-28.6-23.9-51.3-53-54C108.5,29.4,106.9,29.4,105.3,29.4L105.3,29.4z M82.2,102.1c0-6.7,0.1-13.1,0.9-19.2
				c1.5-10.2,11.5-18.3,22.9-18.3c0.5,0,1,0,1.5,0c11.6,0.7,21.1,10.1,21.6,21.4c0.3,5.2,0.2,10.5,0.2,16H82.2L82.2,102.1z"/>
		</g>
	</g>
	<path fill="#353535" d="M113.7,167c3.7-2.5,6.1-6.8,6.1-11.6c0-7.7-6.3-14-14-14s-14,6.3-14,14c0,4.8,2.4,9.1,6.1,11.6l-3.9,20.5
		c-0.5,2.4,1.4,4.7,3.9,4.7h15.7c2.5,0,4.3-2.3,3.9-4.7L113.7,167z"/>
	
		<line fill="none" stroke="#353535" stroke-width="11" stroke-linecap="round" stroke-linejoin="round" stroke-miterlimit="10" x1="7.4" y1="249.4" x2="377.9" y2="249.4"/>
	
		<polyline fill="none" stroke="#353535" stroke-width="11" stroke-linecap="round" stroke-linejoin="round" stroke-miterlimit="10" points="
		243.2,141.9 250.1,136.7 250.1,162.7 	"/>
	<path fill="none" stroke="#353535" stroke-width="11" stroke-linecap="round" stroke-linejoin="round" stroke-miterlimit="10" d="
		M278.3,163.1h-1c-4.7,0-8.5-3.8-8.5-8.5v-10c0-4.7,3.8-8.5,8.5-8.5h1c4.7,0,8.5,3.8,8.5,8.5v10C286.8,159.3,283,163.1,278.3,163.1z
		"/>
	
		<polyline fill="none" stroke="#353535" stroke-width="11" stroke-linecap="round" stroke-linejoin="round" stroke-miterlimit="10" points="
		303.4,141.9 310.3,136.7 310.3,162.7 	"/>
	<path fill="none" stroke="#353535" stroke-width="11" stroke-linecap="round" stroke-linejoin="round" stroke-miterlimit="10" d="
		M338.5,163.1h-1c-4.7,0-8.5-3.8-8.5-8.5v-10c0-4.7,3.8-8.5,8.5-8.5h1c4.7,0,8.5,3.8,8.5,8.5v10C347,159.3,343.1,163.1,338.5,163.1z
		"/>
	<path fill="none" stroke="#353535" stroke-width="11" stroke-linecap="round" stroke-linejoin="round" stroke-miterlimit="10" d="
		M219,163.1h-1c-4.7,0-8.5-3.8-8.5-8.5v-10c0-4.7,3.8-8.5,8.5-8.5h1c4.7,0,8.5,3.8,8.5,8.5v10C227.5,159.3,223.7,163.1,219,163.1z"
		/>
	
		<polyline fill="none" stroke="#353535" stroke-width="11" stroke-linecap="round" stroke-linejoin="round" stroke-miterlimit="10" points="
		243.2,95.7 250.1,90.5 250.1,116.5 	"/>
	
		<polyline fill="none" stroke="#353535" stroke-width="11" stroke-linecap="round" stroke-linejoin="round" stroke-miterlimit="10" points="
		271.1,95.7 278,90.5 278,116.5 	"/>
	
		<polyline fill="none" stroke="#353535" stroke-width="11" stroke-linecap="round" stroke-linejoin="round" stroke-miterlimit="10" points="
		338.3,95.7 345.2,90.5 345.2,116.5 	"/>
	<path fill="none" stroke="#353535" stroke-width="11" stroke-linecap="round" stroke-linejoin="round" stroke-miterlimit="10" d="
		M310.3,116.9h-1c-4.7,0-8.5-3.8-8.5-8.5v-10c0-4.7,3.8-8.5,8.5-8.5h1c4.7,0,8.5,3.8,8.5,8.5v10C318.8,113.1,315,116.9,310.3,116.9z
		"/>
	
		<polyline fill="none" stroke="#353535" stroke-width="11" stroke-linecap="round" stroke-linejoin="round" stroke-miterlimit="10" points="
		338.5,187.6 345.4,182.4 345.4,208.4 	"/>
	<path fill="none" stroke="#353535" stroke-width="11" stroke-linecap="round" stroke-linejoin="round" stroke-miterlimit="10" d="
		M310.5,208.9h-1c-4.7,0-8.5-3.8-8.5-8.5v-10c0-4.7,3.8-8.5,8.5-8.5h1c4.7,0,8.5,3.8,8.5,8.5v10C319,205,315.2,208.9,310.5,208.9z"
		/>
	<path fill="none" stroke="#353535" stroke-width="11" stroke-linecap="round" stroke-linejoin="round" stroke-miterlimit="10" d="
		M219,116.9h-1c-4.7,0-8.5-3.8-8.5-8.5v-10c0-4.7,3.8-8.5,8.5-8.5h1c4.7,0,8.5,3.8,8.5,8.5v10C227.5,113.1,223.7,116.9,219,116.9z"
		/>
	
		<polyline fill="none" stroke="#353535" stroke-width="11" stroke-linecap="round" stroke-linejoin="round" stroke-miterlimit="10" points="
		211.7,188.1 218.5,182.9 218.5,208.9 	"/>
	
		<polyline fill="none" stroke="#353535" stroke-width="11" stroke-linecap="round" stroke-linejoin="round" stroke-miterlimit="10" points="
		274.1,188.1 281,182.9 281,208.9 	"/>
	<path fill="none" stroke="#353535" stroke-width="11" stroke-linecap="round" stroke-linejoin="round" stroke-miterlimit="10" d="
		M247.4,209.3h-1c-4.7,0-8.5-3.8-8.5-8.5v-10c0-4.7,3.8-8.5,8.5-8.5h1c4.7,0,8.5,3.8,8.5,8.5v10
		C255.9,205.5,252.1,209.3,247.4,209.3z"/>
</g>
</svg>
