<?xml version="1.0" encoding="utf-8"?>
<!-- Generator: Adobe Illustrator 18.1.1, SVG Export Plug-In . SVG Version: 6.00 Build 0)  -->
<svg version="1.1" id="Laag_1" xmlns="http://www.w3.org/2000/svg" xmlns:xlink="http://www.w3.org/1999/xlink" x="0px" y="0px"
	 viewBox="0 0 384 384" enable-background="new 0 0 384 384" xml:space="preserve">
<g>
	<path fill="#FFFFFF" stroke="#353535" stroke-width="11" stroke-linecap="round" stroke-miterlimit="10" d="M360.4,361.8H23.6
		c-9.2,0-16.7-7.5-16.7-16.7V159.6c0-9.2,7.5-16.7,16.7-16.7h336.7c9.2,0,16.7,7.5,16.7,16.7v185.5
		C377,354.3,369.5,361.8,360.4,361.8z"/>
	
		<path fill="#00DEB1" stroke="#353535" stroke-width="11" stroke-linecap="round" stroke-linejoin="round" stroke-miterlimit="10" d="
		M368.6,145c0,0-170.1-109.2-180.4-109.2S13.5,146.2,13.5,146.2l-1.8,1.9c0,0,166.3,111.8,176.5,111.8s184.1-111.8,184.1-111.8
		L368.6,145z"/>
	<g>
		<path fill="#FFFFFF" stroke="#353535" stroke-width="11" stroke-linecap="round" stroke-miterlimit="10" d="M213.1,31.1l-7.9,84.2
			c-0.2,2.3-2.3,4-4.6,3.8l-46.4-4.4c-2.3-0.2-4-2.3-3.8-4.6l7.9-84.2c0.2-2.3,2.3-4,4.6-3.8l46.4,4.4
			C211.6,26.8,213.3,28.9,213.1,31.1z"/>
		<path fill="none" stroke="#353535" stroke-width="11" stroke-linecap="round" stroke-miterlimit="10" d="M159.9,23.1
			c0,0,23.9,46.1,23.6,48.7c-0.2,2.6-32.1,41.5-32.1,41.5"/>
	</g>
	<g>
		<path fill="#FFFFFF" stroke="#353535" stroke-width="11" stroke-linecap="round" stroke-miterlimit="10" d="M142,190.6l-83.4-79.4
			c-2.3-2.2-2.4-5.8-0.2-8.1l43.7-45.9c2.2-2.3,5.8-2.4,8.1-0.2l83.4,79.4c2.3,2.2,2.4,5.8,0.2,8.1l-43.7,45.9
			C147.9,192.6,144.3,192.7,142,190.6z"/>
		<path fill="none" stroke="#353535" stroke-width="11" stroke-linecap="round" stroke-miterlimit="10" d="M195.4,140.5
			c0,0-69.4-13.3-71.9-15.7c-2.5-2.4-17.4-69.3-17.4-69.3"/>
	</g>
	<g>
		<path fill="#FFFFFF" stroke="#353535" stroke-width="11" stroke-linecap="round" stroke-miterlimit="10" d="M342,112.6l-61.6,58
			c-1.7,1.6-4.3,1.5-5.9-0.2l-31.9-33.9c-1.6-1.7-1.5-4.3,0.2-5.9l61.6-58c1.7-1.6,4.3-1.5,5.9,0.2l31.9,33.9
			C343.7,108.4,343.6,111.1,342,112.6z"/>
		<path fill="none" stroke="#353535" stroke-width="11" stroke-linecap="round" stroke-miterlimit="10" d="M307.4,71.5
			c0,0-12.6,50.4-14.4,52.1c-1.9,1.8-51.5,9.9-51.5,9.9"/>
	</g>
	<g>
		<path fill="#FFFFFF" stroke="#353535" stroke-width="11" stroke-linecap="round" stroke-miterlimit="10" d="M249,227.6l-78.4,68
			c-2.1,1.9-5.4,1.6-7.2-0.5l-37.5-43.2c-1.9-2.1-1.6-5.4,0.5-7.2l78.4-68c2.1-1.9,5.4-1.6,7.2,0.5l37.5,43.2
			C251.4,222.5,251.2,225.7,249,227.6z"/>
		<path fill="none" stroke="#353535" stroke-width="11" stroke-linecap="round" stroke-miterlimit="10" d="M208.6,175.4
			c0,0-17.9,61.2-20.3,63.2c-2.4,2.1-63.7,9.6-63.7,9.6"/>
	</g>
	
		<path fill="#FFFFFF" stroke="#353535" stroke-width="11" stroke-linecap="round" stroke-linejoin="round" stroke-miterlimit="10" d="
		M371.9,148.2c0,0-173.5,111.7-183.7,111.7c-10.3,0-176.1-111.7-176.1-111.7c-3.1,3-5.2,6.8-5.2,11.5v185.5
		c0,9.2,7.5,16.7,16.7,16.7h336.7c9.2,0,16.7-7.5,16.7-16.7V159.6C377,151.3,371.9,148.2,371.9,148.2z"/>
	
		<path fill="#00DEB1" stroke="#353535" stroke-width="11" stroke-linecap="round" stroke-linejoin="round" stroke-miterlimit="10" d="
		M86.2,246.5c-0.3,0-1.5,0.1-2.1,1.1l-48.4,78.8c-0.4,0.7-0.3,1.3,0,1.8c0.4,0.7,1.2,1.2,2.1,1.2h96.8c0.9,0,1.7-0.4,2.1-1.2
		c0.2-0.4,0.4-1,0-1.8l-48.4-78.8C87.6,246.6,86.5,246.5,86.2,246.5z"/>
	
		<line fill="none" stroke="#353535" stroke-width="11" stroke-linecap="round" stroke-linejoin="round" stroke-miterlimit="10" x1="86.1" y1="279.3" x2="86.1" y2="296.2"/>
	
		<line fill="none" stroke="#353535" stroke-width="11" stroke-linecap="round" stroke-linejoin="round" stroke-miterlimit="10" x1="85.4" y1="311.7" x2="85.4" y2="311"/>
</g>
</svg>
