<?xml version="1.0" encoding="utf-8"?>
<!-- Generator: Adobe Illustrator 18.1.1, SVG Export Plug-In . SVG Version: 6.00 Build 0)  -->
<svg version="1.1" id="Laag_1" xmlns="http://www.w3.org/2000/svg" xmlns:xlink="http://www.w3.org/1999/xlink" x="0px" y="0px"
	 viewBox="0 0 384 384" enable-background="new 0 0 384 384" xml:space="preserve">
<g>
	<g>
		
			<line fill="none" stroke="#00DEB1" stroke-width="11" stroke-linecap="round" stroke-linejoin="round" stroke-miterlimit="10" x1="192.2" y1="7.7" x2="192.2" y2="58.4"/>
		
			<line fill="none" stroke="#00DEB1" stroke-width="11" stroke-linecap="round" stroke-linejoin="round" stroke-miterlimit="10" x1="282.8" y1="27.8" x2="257.4" y2="71.6"/>
		
			<line fill="none" stroke="#00DEB1" stroke-width="11" stroke-linecap="round" stroke-linejoin="round" stroke-miterlimit="10" x1="356.5" y1="83.2" x2="311.9" y2="107.3"/>
		
			<line fill="none" stroke="#00DEB1" stroke-width="11" stroke-linecap="round" stroke-linejoin="round" stroke-miterlimit="10" x1="99.2" y1="27.8" x2="124.7" y2="71.6"/>
		
			<line fill="none" stroke="#00DEB1" stroke-width="11" stroke-linecap="round" stroke-linejoin="round" stroke-miterlimit="10" x1="25.6" y1="83.2" x2="70.1" y2="107.3"/>
	</g>
	<path fill="#353535" d="M326.2,341.2c-0.1-0.4-0.1-0.8-0.1-1.1c-0.6-20.6-33.6-31.6-44.6-36.4c-11.2-4.8-43.9-12.2-52.6-26.9
		c-8.8-14.7-6.3-22.7-5.4-28.3c1-5.6,8.2-8.4,13.2-20.3c1.9-4.7,2.2-12,2.2-16.7s13.6-4.8,15.5-21.1c1.9-15.9-4.3-13.4-4.4-14.8
		c-0.2-6.4,6.8-26.4,4-40.2c-2.7-13.4-24.1-42.4-61.2-42.4v-0.1c-0.7,0-3.5,0-4.2,0v0.1c-39.2,0-58.5,29-61.2,42.4
		c-2.8,13.8,4.2,33.8,4,40.2c0,1.3-6.3-1.2-4.4,14.8c2,16.3,15.5,16.3,15.5,21.1s-0.3,12.1,1.6,16.7c5,12,12.2,14.8,13.2,20.3
		c1,5.6,4,13.6-4.8,28.3c-8.8,14.7-41.5,22.2-52.6,26.9c-11.1,4.7-44.1,15.8-44.6,36.4c0,0.3,0,0.7-0.1,1l-5.8,34.1
		c-0.2,1-0.2,2.1,0.2,3.1c0.9,2.7,3.5,4.7,6.5,4.7l134.6-0.6L326,383c1.9,0,3.6-0.8,4.8-2c1.6-1.6,2.2-3.9,1.8-6.1L326.2,341.2z"/>
</g>
</svg>
